<svg xmlns="http://www.w3.org/2000/svg" width="24" height="24" viewBox="0 0 24 24"><defs><style>.cls-1,.cls-3,.cls-5,.cls-6{fill:#fff;}.cls-1,.cls-3,.cls-6{stroke:#fff;stroke-miterlimit:10;}.cls-1{stroke-width:3px;}.cls-2{fill:#1300d4;}.cls-3{stroke-width:2px;}.cls-4{fill:none;}</style></defs><title>Asset 2</title><g id="Layer_2" data-name="Layer 2"><g id="Layer_1-2" data-name="Layer 1"><path class="cls-1" d="M171.8,339c-30.76-3.41-57.67-14.47-81.26-33.19-.51.2-1,.23-1.1.45C82.24,320,70.1,319.49,56.15,316.89c0-6.29-.14-13.06.12-19.8.06-1.35,1.43-2.88,2.57-3.92,3.16-2.89,6.52-5.57,10-8.53a155.45,155.45,0,0,1-35.22-82.95c-4.24.33-8.33,1-12.38.81a10.77,10.77,0,0,1-6.4-2.52c-4.49-4.15-8.56-8.77-12.81-13.22,4.06-4.27,8.33-8.44,12.2-13a8.07,8.07,0,0,1,8.31-3c3.41.56,6.91.65,10.85,1q4.88-47.73,34.78-84.21c-.26-.63-.31-1.09-.53-1.2C53.36,79.29,57,66.59,57.7,54.66c1.74,0,3.34,0,4.93,0,5.33-.09,11.23-1.64,15.83.13s7.66,6.87,11.88,11a155.2,155.2,0,0,1,81.22-33.28c-.27-3.91-.83-7.66-.66-11.38a10,10,0,0,1,2.28-6c4.3-4.57,9-8.75,13.5-13,4.13,3.92,8,8,12.34,11.61,3.17,2.65,4.37,5.49,3.5,9.55-.59,2.73-.52,5.61-.8,9.08,30.81,3.39,58.4,14.45,82.4,33.82.67-.42,1.28-.58,1.47-.95,5.05-9.41,13-11.7,23-9.85,2.52.47,5.2.07,8.55.07,0,6.42.14,13.24-.11,20A7.57,7.57,0,0,1,314.68,80c-2.6,2.56-5.54,4.77-8.84,7.54a155.36,155.36,0,0,1,34.75,84.21c3.88-.32,7.47-1,11-.79a10.92,10.92,0,0,1,6.4,2.47c4.51,4.15,8.58,8.77,13.25,13.67a31.36,31.36,0,0,0-3.57,3.09c-7,8.15-13.71,17-25.46,11.47-4.53,15.14-7.64,30.07-13.48,43.85s-14.41,26.46-22.18,40.31a65.4,65.4,0,0,1,7.4,6.52,12.18,12.18,0,0,1,3,6.68c.42,5.79.14,11.64.14,18.73-7.59,0-14.67.12-21.74-.12-1.18,0-2.47-1.49-3.41-2.55-2.66-3-5.15-6.07-8-9.48a155.84,155.84,0,0,1-82.3,33.51c.36,4.4,1,8.5.93,12.58a9.76,9.76,0,0,1-2.2,6c-4.29,4.6-9,8.8-13.61,13.19-4.15-3.93-8.19-8.1-12.6-11.81-2.89-2.43-3.9-5-3.31-8.69S171.47,343.11,171.8,339ZM89.57,302.6a154.33,154.33,0,0,0,84.21,34.74c-.39,5.06-.83,9.67-1,14.29-.06,1.38.1,3.23.94,4.09,4.13,4.24,8.53,8.22,13,12.45,4.11-3.87,8-7.06,11.26-10.79a11.68,11.68,0,0,0,2.63-6.83c.15-4.25-.56-8.53-1-13.17A154,154,0,0,0,284.12,303c3.07,3.63,5.8,7,8.66,10.16,1,1.06,2.24,2.51,3.42,2.56,6.09.26,12.19.12,19,.12,0-6,.31-11-.13-15.93a12.13,12.13,0,0,0-3-6.68c-2.77-3-6.2-5.39-9.59-8.25a153.76,153.76,0,0,0,36.32-85.19c4.59.35,8.7.76,12.82.92,1.39.05,3.24-.09,4.12-.94,4.25-4.12,8.25-8.52,12.44-12.92a53,53,0,0,1-4.06-4.47c-5.44-7.68-12.16-12-21.94-8.82a12.23,12.23,0,0,1-3.25,0A153.76,153.76,0,0,0,303.2,87.31c3.39-2.86,6.51-5.33,9.42-8,1.12-1,2.43-2.59,2.49-4,.28-5.78.12-11.57.12-17.37-11.4-1.41-22.19-3.79-28.33,8.65-.45.9-1,1.75-1.63,2.84C259.87,48.61,231.63,37.1,199.67,34c.4-4.53.89-8.48,1-12.45.05-1.52-.19-3.54-1.14-4.52-4-4.17-8.35-8-12.9-12.33-4.47,4.25-10.14,7.55-12.45,12.43-2.22,4.7-1,11-1.28,17Q126.52,38.8,89.68,68.72c-3-3.52-5.66-6.88-8.58-10-1-1.11-2.62-2.33-4-2.39-5.78-.26-11.57-.11-18.22-.11,0,6.24-.22,11.53.11,16.79a9.16,9.16,0,0,0,2.46,5.43c3,3,6.45,5.56,9.88,8.43-21.39,25.41-33.17,54.24-36.23,87-4.85-.42-9.13-.88-13.42-1.11-1.4-.08-3.32-.07-4.18.75-4.38,4.22-8.49,8.73-13.77,14.25,5.1,4.55,9.11,10.06,14.48,12.33,4.76,2,11,.42,17.2.42,3.2,31.37,15.33,59.7,36.1,84.39-4,3.33-7.44,6.16-10.8,9.13-1.05.94-2.47,2.23-2.52,3.41-.26,6.07-.12,12.15-.12,17.37,13.41,3.82,23.62,1.91,30-10.06C88.4,304.16,88.84,303.64,89.57,302.6Z"/><path class="cls-2" d="M89.57,302.6c-.73,1-1.17,1.56-1.48,2.14-6.4,12-16.61,13.88-30,10.06,0-5.22-.14-11.3.12-17.37.05-1.18,1.47-2.47,2.52-3.41,3.36-3,6.84-5.8,10.8-9.13-20.77-24.69-32.9-53-36.1-84.39-6.16,0-12.44,1.59-17.2-.42-5.37-2.27-9.38-7.78-14.48-12.33,5.28-5.52,9.39-10,13.77-14.25.86-.82,2.78-.83,4.18-.75,4.29.23,8.57.69,13.42,1.11,3.06-32.76,14.84-61.59,36.23-87-3.43-2.87-6.88-5.42-9.88-8.43A9.16,9.16,0,0,1,59,73c-.33-5.26-.11-10.55-.11-16.79,6.65,0,12.44-.15,18.22.11,1.38.06,3,1.28,4,2.39,2.92,3.13,5.6,6.49,8.58,10q36.84-30,83.25-34.53c.3-6-.94-12.33,1.28-17,2.31-4.88,8-8.18,12.45-12.43,4.55,4.29,8.88,8.16,12.9,12.33.95,1,1.19,3,1.14,4.52-.14,4-.63,7.92-1,12.45,32,3.07,60.2,14.58,85.6,35.42.63-1.09,1.18-1.94,1.63-2.84C293,54.17,303.83,56.55,315.23,58c0,5.8.16,11.59-.12,17.37-.06,1.36-1.37,2.9-2.49,4-2.91,2.7-6,5.17-9.42,8A153.76,153.76,0,0,1,339,173.56a12.23,12.23,0,0,0,3.25,0c9.78-3.13,16.5,1.14,21.94,8.82a53,53,0,0,0,4.06,4.47c-4.19,4.4-8.19,8.8-12.44,12.92-.88.85-2.73,1-4.12.94-4.12-.16-8.23-.57-12.82-.92a153.76,153.76,0,0,1-36.32,85.19c3.39,2.86,6.82,5.25,9.59,8.25a12.13,12.13,0,0,1,3,6.68c.44,4.92.13,9.92.13,15.93-6.8,0-12.9.14-19-.12-1.18-.05-2.47-1.5-3.42-2.56-2.86-3.2-5.59-6.53-8.66-10.16a154,154,0,0,1-84.52,34.42c.39,4.64,1.1,8.92,1,13.17a11.68,11.68,0,0,1-2.63,6.83c-3.27,3.73-7.15,6.92-11.26,10.79-4.45-4.23-8.85-8.21-13-12.45-.84-.86-1-2.71-.94-4.09.21-4.62.65-9.23,1-14.29A154.33,154.33,0,0,1,89.57,302.6Zm49.12-116.53A48.1,48.1,0,1,0,187,138.41,48,48,0,0,0,138.69,186.07Zm86.8-46.1,44.65-53.34C248.78,69.24,225.07,59.31,197.56,57c-2.06,23.13-4.07,45.75-6.13,68.84C204.15,127.38,215.34,131.68,225.49,140Zm90.4,57.63-68.83-6.11a63.25,63.25,0,0,1-14.81,34.81l52.66,44C302.81,249.15,313.05,225.38,315.89,197.6Zm-174.5-52.24L88.92,101.54C70.67,123.31,60.41,147.69,58.07,176l67.45,6C129.55,162.69,130.49,160.52,141.39,145.36Zm174.72,30.51c-2.62-28.27-12.58-52.51-30.58-73.91l-53.34,44.58A63.24,63.24,0,0,1,247.14,182ZM58.21,197.51c2.92,27.94,13.1,51.74,31,72.67l52-43.43c-9.09-10.29-13.69-22-15.42-35.28ZM182,125.77c-2.07-23.07-4.11-45.69-6.18-68.76-27.15,2.52-50.52,12.31-71.46,29.34l44.17,52.77C158.43,131.28,169.53,127.19,182,125.77ZM147.39,233.89l-42.95,51.29C125.68,302.36,149.1,312,176,314.42c2-22.89,4-45,5.94-66.68-6.44-1.8-12.36-2.93-17.85-5.13S153.46,237.13,147.39,233.89Zm122.06,51.42-43.91-52.44A63.94,63.94,0,0,1,191.41,247c2,22.74,4,45,6,67.53C224.89,312,248.46,302.41,269.45,285.31Z"/><path class="cls-3" d="M138.69,186.07a48.1,48.1,0,1,1,47.55,48.47A47.8,47.8,0,0,1,138.69,186.07Zm1.81-.26a46.23,46.23,0,0,0,45.35,46.84c25.5.4,46.63-19.81,47.12-45.09a46.24,46.24,0,1,0-92.47-1.75Z"/><path class="cls-3" d="M182,125.77c-12.44,1.42-23.54,5.51-33.47,13.35L104.33,86.35c20.94-17,44.31-26.82,71.46-29.34C177.86,80.08,179.9,102.7,182,125.77Zm-2.07-2.18C178,102.27,176.06,80.83,174.09,59c-25.42,2.89-47.4,11.91-67.06,27.67L148.38,136c5.48-2.8,10.06-5.6,15-7.53C168.42,126.5,173.81,125.35,179.9,123.59Z"/><path class="cls-4" d="M140.5,185.81A46.24,46.24,0,1,1,233,187.56c-.49,25.28-21.62,45.49-47.12,45.09A46.23,46.23,0,0,1,140.5,185.81Zm60.59.35a14.13,14.13,0,1,0-28.25.08,14.13,14.13,0,1,0,28.25-.08ZM184.9,144.48,158.32,155c5.47,5.48,10.39,10.62,15.56,15.5,2.42,2.28,10.87-1.43,11-4.78C185,158.92,184.9,152.11,184.9,144.48Zm33.37,13c-5.58,5.77-10.62,10.77-15.4,16-2.26,2.49,1.49,10.82,4.89,10.91,6.77.18,13.55.06,21.21.06C225.36,175.32,222,167,218.27,157.43Zm-28.89-13.19c0,7.92-.16,15,.08,22.06.1,3.09,8.56,6.57,10.81,4.45,5-4.74,9.81-9.77,15.25-15.24Zm-44,44.62,10.69,26.92c5.57-5.72,10.7-10.48,15.08-15.85,1.08-1.32.18-4.82-.67-7-.65-1.64-2.58-3.81-4.06-3.91C159.8,188.62,153.15,188.86,145.37,188.86Zm83.77.25c-8,0-15.11-.18-22.19.08-3.09.11-6.42,8.6-4.33,10.86,4.7,5.08,9.63,9.95,15.06,15.51Zm-13.29,28.15c-5.7-5.56-10.7-10.64-15.94-15.45-2.44-2.24-10.8,1.59-10.89,4.95-.16,6.77-.05,13.56-.05,21.15ZM184.9,228.41c0-7.92.1-14.71,0-21.5-.07-3.34-8.36-7.37-10.74-5.15-5.16,4.83-10,10-15.41,15.33Zm-40-44.45c7.93,0,15.05.15,22.15-.08,2.82-.09,6.42-8.49,4.54-10.5-4.83-5.18-9.93-10.11-15.41-15.62Z"/><path class="cls-3" d="M225.49,140c-10.15-8.29-21.34-12.59-34.06-14.18,2.06-23.09,4.07-45.71,6.13-68.84,27.51,2.36,51.22,12.29,72.58,29.68Zm.83-3.92,41.17-49.17C247.24,70.89,225,61.44,199.23,59c-2,22.14-3.85,43.58-5.62,63.58Z"/><path class="cls-3" d="M315.89,197.6c-2.84,27.78-13.08,51.55-31,72.69l-52.66-44a63.25,63.25,0,0,0,14.81-34.81Zm-2.05,1.7-63.36-5.66L236.2,227.16l48.47,40.48A127.3,127.3,0,0,0,313.84,199.3Z"/><path class="cls-3" d="M141.39,145.36c-10.9,15.16-11.84,17.33-15.87,36.58l-67.45-6c2.34-28.28,12.6-52.66,30.85-74.43ZM89.15,104.17c-16.83,20.58-26.49,43.55-29.06,70.11L124.16,180a65.72,65.72,0,0,1,14.7-34.26Z"/><path class="cls-3" d="M316.11,175.87l-69,6.1a63.24,63.24,0,0,0-14.95-35.43L285.53,102C303.53,123.36,313.49,147.6,316.11,175.87ZM314,174.19a127.21,127.21,0,0,0-28.72-69.6l-50.5,42.21c8.06,9.84,12.3,20.88,14.11,33.17Z"/><path class="cls-3" d="M58.21,197.51l67.53-6c1.73,13.24,6.33,25,15.42,35.28l-52,43.43C71.31,249.25,61.13,225.45,58.21,197.51Zm2.09,1.66c2.93,26.06,12.63,48.37,29.07,68.4l49.11-41a65.18,65.18,0,0,1-14.33-33.06Z"/><path class="cls-3" d="M147.39,233.89c6.07,3.24,11.15,6.52,16.65,8.72s11.41,3.33,17.85,5.13C180,269.42,178,291.53,176,314.42c-26.85-2.4-50.27-12.06-71.51-29.24Zm-40.31,51c20,15.68,41.89,24.81,67.16,27.47,1.92-21.38,3.8-42.35,5.57-62.09-11.19-4.5-21.57-8.67-32.7-13.16Z"/><path class="cls-3" d="M269.45,285.31c-21,17.1-44.56,26.7-72,29.24-2-22.54-4-44.79-6-67.53a63.94,63.94,0,0,0,34.13-14.15Zm-2.66-.24-40.41-48.28-32.82,13.49c1.81,20.14,3.69,41.07,5.6,62.26C224.71,309.8,246.82,300.84,266.79,285.07Z"/><path class="cls-5" d="M201.09,186.16a14.13,14.13,0,1,1-13.89-14.11A14.18,14.18,0,0,1,201.09,186.16Zm-1.88.27a12.24,12.24,0,1,0-12.59,12.07A12.32,12.32,0,0,0,199.21,186.43Z"/><path class="cls-6" d="M184.9,144.48c0,7.63.13,14.44-.06,21.24-.09,3.35-8.54,7.06-11,4.78-5.17-4.88-10.09-10-15.56-15.5Zm-23.42,11.27c4.68,4.6,8.52,8.5,12.49,12.24,2.41,2.27,8.76.2,8.93-3,.29-5.67.08-11.36.08-17.72Z"/><path class="cls-6" d="M218.27,157.43c3.77,9.52,7.09,17.89,10.7,27-7.66,0-14.44.12-21.21-.06-3.4-.09-7.15-8.42-4.89-10.91C207.65,168.2,212.69,163.2,218.27,157.43Zm7.93,25.09c-2.89-7.31-5.55-14-8.62-21.74-4.49,4.7-8.54,8.61-12.1,12.91-.9,1.09-.81,3.67-.19,5.15s2.42,3.41,3.82,3.52C214.51,182.76,220,182.52,226.2,182.52Z"/><path class="cls-6" d="M189.38,144.24l26.14,11.27c-5.44,5.47-10.21,10.5-15.25,15.24-2.25,2.12-10.71-1.36-10.81-4.45C189.22,159.24,189.38,152.16,189.38,144.24Zm23.48,12.13-21.67-9.28c0,6.46-.29,11.93.18,17.33.13,1.5,2.27,3.34,3.91,4a5.91,5.91,0,0,0,5.1-.53C204.46,164.59,208.16,160.8,212.86,156.37Z"/><path class="cls-6" d="M145.37,188.86c7.78,0,14.43-.24,21,.18,1.48.1,3.41,2.27,4.06,3.91.85,2.16,1.75,5.66.67,7-4.38,5.37-9.51,10.13-15.08,15.85Zm11.42,23.69c4.62-4.82,8.7-8.86,12.51-13.15,2.16-2.43-.6-8.51-3.89-8.62-5.42-.18-10.84-.05-17.27-.05Z"/><path class="cls-6" d="M229.14,189.11l-11.46,26.45c-5.43-5.56-10.36-10.43-15.06-15.51-2.09-2.26,1.24-10.75,4.33-10.86C214,188.93,221.13,189.11,229.14,189.11ZM217,212.49c3.38-7.8,6.22-14.36,9.37-21.61-6.58,0-12.2-.29-17.75.2-1.43.12-3.11,2.51-3.82,4.21a5.4,5.4,0,0,0,.56,4.69C208.7,204,212.49,207.76,217,212.49Z"/><path class="cls-6" d="M215.85,217.26,189,227.91c0-7.59-.11-14.38.05-21.15.09-3.36,8.45-7.19,10.89-4.95C205.15,206.62,210.15,211.7,215.85,217.26Zm-3-.85c-5-4.62-9-8.71-13.48-12.28-1-.84-3.67-.38-5.21.3-1.36.58-3.06,2.25-3.14,3.54-.35,5.41-.15,10.86-.15,17.17Z"/><path class="cls-6" d="M184.9,228.41l-26.19-11.32c5.37-5.37,10.25-10.5,15.41-15.33,2.38-2.22,10.67,1.81,10.74,5.15C185,213.7,184.9,220.49,184.9,228.41Zm-23.52-12.17L183,225.49c0-6.42.24-12-.17-17.58-.1-1.36-2.14-3-3.65-3.71-1.35-.62-3.78-.81-4.75,0C170.13,207.75,166.18,211.74,161.38,216.24Z"/><path class="cls-3" d="M144.94,184l11.28-26.2c5.48,5.51,10.58,10.44,15.41,15.62,1.88,2-1.72,10.41-4.54,10.5C160,184.11,152.87,184,144.94,184Zm2.77-1.75c6.56,0,12.29.15,18-.07,2.7-.1,5.63-6.21,3.87-8.16-3.91-4.34-8.2-8.33-12.76-12.89C153.65,168.45,150.86,174.9,147.71,182.21Z"/><path class="cls-2" d="M199.21,186.43a12.24,12.24,0,1,1-12.12-12.57A12.29,12.29,0,0,1,199.21,186.43Z"/><path class="cls-2" d="M161.48,155.75l21.5-8.5c0,6.36.21,12.05-.08,17.72-.17,3.22-6.52,5.29-8.93,3C170,164.25,166.16,160.35,161.48,155.75Z"/><path class="cls-2" d="M226.2,182.52c-6.24,0-11.69.24-17.09-.16-1.4-.11-3.19-2-3.82-3.52s-.71-4.06.19-5.15c3.56-4.3,7.61-8.21,12.1-12.91C220.65,168.53,223.31,175.21,226.2,182.52Z"/><path class="cls-2" d="M212.86,156.37c-4.7,4.43-8.4,8.22-12.48,11.55a5.91,5.91,0,0,1-5.1.53c-1.64-.69-3.78-2.53-3.91-4-.47-5.4-.18-10.87-.18-17.33Z"/><path class="cls-2" d="M156.79,212.55l-8.65-21.82c6.43,0,11.85-.13,17.27.05,3.29.11,6.05,6.19,3.89,8.62C165.49,203.69,161.41,207.73,156.79,212.55Z"/><path class="cls-2" d="M217,212.49c-4.47-4.73-8.26-8.45-11.64-12.51a5.4,5.4,0,0,1-.56-4.69c.71-1.7,2.39-4.09,3.82-4.21,5.55-.49,11.17-.2,17.75-.2C223.18,198.13,220.34,204.69,217,212.49Z"/><path class="cls-2" d="M212.87,216.41l-22,8.73c0-6.31-.2-11.76.15-17.17.08-1.29,1.78-3,3.14-3.54,1.54-.68,4.17-1.14,5.21-.3C203.85,207.7,207.9,211.79,212.87,216.41Z"/><path class="cls-2" d="M161.38,216.24c4.8-4.5,8.75-8.49,13.05-12,1-.81,3.4-.62,4.75,0,1.51.71,3.55,2.35,3.65,3.71.41,5.55.17,11.16.17,17.58Z"/><path class="cls-2" d="M147.71,182.21c3.15-7.31,5.94-13.76,9.12-21.12,4.56,4.56,8.85,8.55,12.76,12.89,1.76,2-1.17,8.06-3.87,8.16C160,182.36,154.27,182.21,147.71,182.21Z"/></g></g></svg>
